<mxfile host="app.diagrams.net" modified="2023-06-11T14:12:00.446Z" agent="Mozilla/5.0 (Windows NT 10.0; Win64; x64) AppleWebKit/537.36 (KHTML, like Gecko) Chrome/113.0.0.0 Safari/537.36 OPR/99.0.0.0" etag="H809hATwQj4vgMIMZW0l" version="21.3.2" type="device">
  <diagram name="Page-1" id="svnVIzhfkOpL4Pe71K7A">
    <mxGraphModel dx="861" dy="379" grid="1" gridSize="10" guides="1" tooltips="1" connect="1" arrows="1" fold="1" page="1" pageScale="1" pageWidth="850" pageHeight="1100" math="0" shadow="0">
      <root>
        <mxCell id="0" />
        <mxCell id="1" parent="0" />
        <mxCell id="KC5hEJwEiK72oebouPB5-9" style="edgeStyle=orthogonalEdgeStyle;rounded=0;orthogonalLoop=1;jettySize=auto;html=1;exitX=1;exitY=0.5;exitDx=0;exitDy=0;entryX=0;entryY=0.5;entryDx=0;entryDy=0;" edge="1" parent="1" source="KC5hEJwEiK72oebouPB5-1" target="KC5hEJwEiK72oebouPB5-2">
          <mxGeometry relative="1" as="geometry" />
        </mxCell>
        <mxCell id="KC5hEJwEiK72oebouPB5-10" style="edgeStyle=orthogonalEdgeStyle;rounded=0;orthogonalLoop=1;jettySize=auto;html=1;exitX=0.5;exitY=0;exitDx=0;exitDy=0;entryX=0.5;entryY=1;entryDx=0;entryDy=0;" edge="1" parent="1" source="KC5hEJwEiK72oebouPB5-1" target="KC5hEJwEiK72oebouPB5-5">
          <mxGeometry relative="1" as="geometry" />
        </mxCell>
        <mxCell id="KC5hEJwEiK72oebouPB5-18" style="edgeStyle=orthogonalEdgeStyle;rounded=0;orthogonalLoop=1;jettySize=auto;html=1;exitX=0.5;exitY=1;exitDx=0;exitDy=0;entryX=0.5;entryY=0;entryDx=0;entryDy=0;" edge="1" parent="1" source="KC5hEJwEiK72oebouPB5-1" target="KC5hEJwEiK72oebouPB5-17">
          <mxGeometry relative="1" as="geometry" />
        </mxCell>
        <mxCell id="KC5hEJwEiK72oebouPB5-1" value="LOGIN" style="rounded=0;whiteSpace=wrap;html=1;" vertex="1" parent="1">
          <mxGeometry x="160" y="170" width="120" height="60" as="geometry" />
        </mxCell>
        <mxCell id="KC5hEJwEiK72oebouPB5-31" style="edgeStyle=orthogonalEdgeStyle;rounded=0;orthogonalLoop=1;jettySize=auto;html=1;exitX=0.5;exitY=0;exitDx=0;exitDy=0;entryX=0.5;entryY=1;entryDx=0;entryDy=0;" edge="1" parent="1" source="KC5hEJwEiK72oebouPB5-2" target="KC5hEJwEiK72oebouPB5-30">
          <mxGeometry relative="1" as="geometry">
            <mxPoint x="390" y="170" as="sourcePoint" />
          </mxGeometry>
        </mxCell>
        <mxCell id="KC5hEJwEiK72oebouPB5-42" style="edgeStyle=orthogonalEdgeStyle;rounded=0;orthogonalLoop=1;jettySize=auto;html=1;exitX=1;exitY=0.75;exitDx=0;exitDy=0;entryX=0;entryY=0.5;entryDx=0;entryDy=0;" edge="1" parent="1" source="KC5hEJwEiK72oebouPB5-2" target="KC5hEJwEiK72oebouPB5-4">
          <mxGeometry relative="1" as="geometry" />
        </mxCell>
        <mxCell id="KC5hEJwEiK72oebouPB5-43" style="edgeStyle=orthogonalEdgeStyle;rounded=0;orthogonalLoop=1;jettySize=auto;html=1;exitX=1;exitY=0.25;exitDx=0;exitDy=0;" edge="1" parent="1" source="KC5hEJwEiK72oebouPB5-2" target="KC5hEJwEiK72oebouPB5-40">
          <mxGeometry relative="1" as="geometry" />
        </mxCell>
        <mxCell id="KC5hEJwEiK72oebouPB5-2" value="MAIN PAGE" style="rounded=0;whiteSpace=wrap;html=1;" vertex="1" parent="1">
          <mxGeometry x="360" y="170" width="120" height="60" as="geometry" />
        </mxCell>
        <mxCell id="KC5hEJwEiK72oebouPB5-4" value="REGISTER&lt;br&gt;SERVICE FOR&amp;nbsp;&lt;br&gt;UR CAT" style="rounded=0;whiteSpace=wrap;html=1;" vertex="1" parent="1">
          <mxGeometry x="560" y="230" width="120" height="60" as="geometry" />
        </mxCell>
        <mxCell id="KC5hEJwEiK72oebouPB5-5" value="REGISTER&lt;br&gt;ACCOUNT" style="rounded=0;whiteSpace=wrap;html=1;" vertex="1" parent="1">
          <mxGeometry x="160" y="50" width="120" height="60" as="geometry" />
        </mxCell>
        <mxCell id="KC5hEJwEiK72oebouPB5-8" value="LIST OF&lt;br&gt;REGISTERED&lt;br&gt;SERVICES" style="rounded=0;whiteSpace=wrap;html=1;" vertex="1" parent="1">
          <mxGeometry x="360" y="290" width="120" height="60" as="geometry" />
        </mxCell>
        <mxCell id="KC5hEJwEiK72oebouPB5-20" style="edgeStyle=orthogonalEdgeStyle;rounded=0;orthogonalLoop=1;jettySize=auto;html=1;exitX=1;exitY=0.5;exitDx=0;exitDy=0;entryX=0;entryY=0.5;entryDx=0;entryDy=0;" edge="1" parent="1" source="KC5hEJwEiK72oebouPB5-17" target="KC5hEJwEiK72oebouPB5-8">
          <mxGeometry relative="1" as="geometry" />
        </mxCell>
        <mxCell id="KC5hEJwEiK72oebouPB5-17" value="DASHBOARD" style="rounded=0;whiteSpace=wrap;html=1;" vertex="1" parent="1">
          <mxGeometry x="160" y="290" width="120" height="60" as="geometry" />
        </mxCell>
        <mxCell id="KC5hEJwEiK72oebouPB5-21" value="" style="rounded=0;whiteSpace=wrap;html=1;" vertex="1" parent="1">
          <mxGeometry x="780" y="10" width="50" height="70" as="geometry" />
        </mxCell>
        <mxCell id="KC5hEJwEiK72oebouPB5-22" value="" style="ellipse;whiteSpace=wrap;html=1;" vertex="1" parent="1">
          <mxGeometry x="800" y="20" width="40" height="30" as="geometry" />
        </mxCell>
        <mxCell id="KC5hEJwEiK72oebouPB5-23" value="" style="rounded=0;whiteSpace=wrap;html=1;" vertex="1" parent="1">
          <mxGeometry x="760" y="20" width="20" height="40" as="geometry" />
        </mxCell>
        <mxCell id="KC5hEJwEiK72oebouPB5-24" value="" style="rounded=0;whiteSpace=wrap;html=1;" vertex="1" parent="1">
          <mxGeometry x="780" y="80" width="20" height="10" as="geometry" />
        </mxCell>
        <mxCell id="KC5hEJwEiK72oebouPB5-25" value="" style="rounded=0;whiteSpace=wrap;html=1;" vertex="1" parent="1">
          <mxGeometry x="810" y="80" width="20" height="10" as="geometry" />
        </mxCell>
        <mxCell id="KC5hEJwEiK72oebouPB5-30" value="REGISTER&lt;br&gt;A CAT" style="rounded=0;whiteSpace=wrap;html=1;" vertex="1" parent="1">
          <mxGeometry x="360" y="50" width="120" height="60" as="geometry" />
        </mxCell>
        <mxCell id="KC5hEJwEiK72oebouPB5-40" value="RECEIPT" style="rounded=0;whiteSpace=wrap;html=1;" vertex="1" parent="1">
          <mxGeometry x="560" y="110" width="120" height="60" as="geometry" />
        </mxCell>
      </root>
    </mxGraphModel>
  </diagram>
</mxfile>
